<mxfile host="app.diagrams.net" modified="2023-02-02T11:31:47.429Z" agent="5.0 (Windows NT 10.0; Win64; x64) AppleWebKit/537.36 (KHTML, like Gecko) Chrome/109.0.0.0 Safari/537.36 Edg/109.0.1518.61" etag="xJmewB_f_4H3KsUT-ckk" version="20.8.15" type="github">
  <diagram id="C5RBs43oDa-KdzZeNtuy" name="Page-1">
    <mxGraphModel dx="1050" dy="589" grid="1" gridSize="10" guides="1" tooltips="1" connect="1" arrows="1" fold="1" page="1" pageScale="1" pageWidth="827" pageHeight="1169" math="0" shadow="0">
      <root>
        <mxCell id="WIyWlLk6GJQsqaUBKTNV-0" />
        <mxCell id="WIyWlLk6GJQsqaUBKTNV-1" parent="WIyWlLk6GJQsqaUBKTNV-0" />
        <mxCell id="zkfFHV4jXpPFQw0GAbJ--0" value="api" style="swimlane;fontStyle=3;align=center;verticalAlign=top;childLayout=stackLayout;horizontal=1;startSize=26;horizontalStack=0;resizeParent=1;resizeLast=0;collapsible=1;marginBottom=0;rounded=0;shadow=1;strokeWidth=3;fontSize=15;fillColor=#dae8fc;strokeColor=#6c8ebf;perimeterSpacing=3;glass=0;gradientColor=none;swimlaneFillColor=none;labelPadding=0;fixDash=0;" parent="WIyWlLk6GJQsqaUBKTNV-1" vertex="1">
          <mxGeometry x="110" y="100" width="400" height="890" as="geometry">
            <mxRectangle x="230" y="140" width="160" height="26" as="alternateBounds" />
          </mxGeometry>
        </mxCell>
        <mxCell id="DCvSFfjcytay2C4_XPpO-1" value="&lt;font color=&quot;#3333ff&quot;&gt;aggregate&lt;/font&gt;" style="swimlane;whiteSpace=wrap;html=1;fillOpacity=83;fillColor=#E6D0DE;startSize=24;" vertex="1" parent="zkfFHV4jXpPFQw0GAbJ--0">
          <mxGeometry y="26" width="400" height="114" as="geometry">
            <mxRectangle y="26" width="330" height="30" as="alternateBounds" />
          </mxGeometry>
        </mxCell>
        <mxCell id="DCvSFfjcytay2C4_XPpO-2" value="&lt;font color=&quot;#3333ff&quot;&gt;api&lt;/font&gt;" style="swimlane;whiteSpace=wrap;html=1;startSize=23;fillColor=#E6D0DE;" vertex="1" parent="zkfFHV4jXpPFQw0GAbJ--0">
          <mxGeometry y="140" width="400" height="270" as="geometry">
            <mxRectangle y="140" width="400" height="30" as="alternateBounds" />
          </mxGeometry>
        </mxCell>
        <mxCell id="DCvSFfjcytay2C4_XPpO-5" value="&lt;font color=&quot;#3333ff&quot;&gt;v1&lt;/font&gt;" style="swimlane;whiteSpace=wrap;html=1;startSize=23;fillColor=#E6D0DE;" vertex="1" parent="DCvSFfjcytay2C4_XPpO-2">
          <mxGeometry y="20" width="400" height="250" as="geometry">
            <mxRectangle y="20" width="400" height="250" as="alternateBounds" />
          </mxGeometry>
        </mxCell>
        <mxCell id="DCvSFfjcytay2C4_XPpO-6" value="&lt;font color=&quot;#cc6600&quot;&gt;&lt;span style=&quot;background-color: rgb(255, 255, 204);&quot;&gt;InterfaceApi.java&lt;/span&gt;&lt;/font&gt;" style="swimlane;whiteSpace=wrap;html=1;shadow=1;glass=0;labelBackgroundColor=#A9C4EB;strokeWidth=1;fontSize=15;fontColor=#3333FF;fillColor=#FFFFCC;gradientColor=none;dashed=1;dashPattern=1 1;" vertex="1" parent="DCvSFfjcytay2C4_XPpO-5">
          <mxGeometry y="20" width="400" height="100" as="geometry" />
        </mxCell>
        <mxCell id="DCvSFfjcytay2C4_XPpO-9" value="&lt;font color=&quot;#000000&quot;&gt;getSomething(KlasaRequest request);&lt;/font&gt;" style="text;strokeColor=none;fillColor=none;align=left;verticalAlign=middle;spacingLeft=4;spacingRight=4;overflow=hidden;points=[[0,0.5],[1,0.5]];portConstraint=eastwest;rotatable=0;whiteSpace=wrap;html=1;fontSize=15;fontColor=#FFFF99;" vertex="1" parent="DCvSFfjcytay2C4_XPpO-6">
          <mxGeometry y="25" width="500" height="35" as="geometry" />
        </mxCell>
        <mxCell id="DCvSFfjcytay2C4_XPpO-3" value="&lt;font color=&quot;#3333ff&quot;&gt;dto&lt;/font&gt;" style="swimlane;whiteSpace=wrap;html=1;startSize=23;fillColor=#E6D0DE;" vertex="1" parent="zkfFHV4jXpPFQw0GAbJ--0">
          <mxGeometry y="410" width="400" height="270" as="geometry">
            <mxRectangle y="340" width="390" height="30" as="alternateBounds" />
          </mxGeometry>
        </mxCell>
        <mxCell id="DCvSFfjcytay2C4_XPpO-4" value="&lt;font color=&quot;#3333ff&quot;&gt;request&lt;/font&gt;" style="swimlane;whiteSpace=wrap;html=1;startSize=23;fillColor=#E6D0DE;" vertex="1" parent="zkfFHV4jXpPFQw0GAbJ--0">
          <mxGeometry y="680" width="400" height="210" as="geometry">
            <mxRectangle y="370" width="330" height="30" as="alternateBounds" />
          </mxGeometry>
        </mxCell>
        <mxCell id="DCvSFfjcytay2C4_XPpO-7" value="List" style="swimlane;fontStyle=0;childLayout=stackLayout;horizontal=1;startSize=30;horizontalStack=0;resizeParent=1;resizeParentMax=0;resizeLast=0;collapsible=1;marginBottom=0;whiteSpace=wrap;html=1;shadow=1;glass=0;dashed=1;dashPattern=1 1;labelBackgroundColor=#FFFFCC;strokeWidth=1;fontSize=15;fontColor=#FFFF99;fillColor=#FFFFCC;gradientColor=none;" vertex="1" parent="WIyWlLk6GJQsqaUBKTNV-1">
          <mxGeometry x="640" y="230" width="140" height="90" as="geometry" />
        </mxCell>
        <mxCell id="DCvSFfjcytay2C4_XPpO-8" value="Item 1" style="text;strokeColor=none;fillColor=none;align=left;verticalAlign=middle;spacingLeft=4;spacingRight=4;overflow=hidden;points=[[0,0.5],[1,0.5]];portConstraint=eastwest;rotatable=0;whiteSpace=wrap;html=1;fontSize=15;fontColor=#FFFF99;" vertex="1" parent="DCvSFfjcytay2C4_XPpO-7">
          <mxGeometry y="30" width="140" height="30" as="geometry" />
        </mxCell>
        <mxCell id="DCvSFfjcytay2C4_XPpO-10" value="Item 3" style="text;strokeColor=none;fillColor=none;align=left;verticalAlign=middle;spacingLeft=4;spacingRight=4;overflow=hidden;points=[[0,0.5],[1,0.5]];portConstraint=eastwest;rotatable=0;whiteSpace=wrap;html=1;fontSize=15;fontColor=#FFFF99;" vertex="1" parent="DCvSFfjcytay2C4_XPpO-7">
          <mxGeometry y="60" width="140" height="30" as="geometry" />
        </mxCell>
      </root>
    </mxGraphModel>
  </diagram>
</mxfile>
